<?xml version="1.0" encoding="UTF-8"?>
<svg width="48px" height="48px" viewBox="0 0 48 48" version="1.1" xmlns="http://www.w3.org/2000/svg" xmlns:xlink="http://www.w3.org/1999/xlink">
    <title>13F98D1A-5050-48C8-AF32-A731B94431EF</title>
    <defs>
        <linearGradient x1="50.000064%" y1="1.23596286e-05%" x2="50.000064%" y2="99.9999262%" id="linearGradient-1">
            <stop stop-color="#35B8F1" offset="0%"></stop>
            <stop stop-color="#28A8EA" offset="100%"></stop>
        </linearGradient>
        <linearGradient x1="17.8758935%" y1="-6.51030653%" x2="82.124138%" y2="106.51036%" id="linearGradient-2">
            <stop stop-color="#1784D9" offset="0%"></stop>
            <stop stop-color="#107AD5" offset="50%"></stop>
            <stop stop-color="#0A63C9" offset="100%"></stop>
        </linearGradient>
    </defs>
    <g id="UI-kit" stroke="none" stroke-width="1" fill="none" fill-rule="evenodd">
        <g id="Connectors" transform="translate(-820.000000, -2320.000000)" fill-rule="nonzero">
            <g id="Connector/Ably-Copy-147" transform="translate(820.000000, 2320.000000)">
                <g id="Microsoft_Office_Outlook_(2018–present)" transform="translate(0.000000, 1.000000)">
                    <path d="M48,23.6249657 C48.0025689,23.246702 47.808638,22.8946458 47.4886965,22.6968486 L47.4831129,22.6968486 L47.4630068,22.6855942 L30.8304551,12.7631087 C30.7586289,12.7142076 30.6841026,12.669507 30.6071908,12.6292449 C29.965001,12.2953383 29.2021484,12.2953383 28.5599325,12.6292449 C28.4830207,12.6695334 28.4084944,12.7142076 28.3366681,12.7631087 L11.7041688,22.6855942 L11.6840889,22.6968486 C11.1757477,23.0154323 11.0199057,23.6890311 11.3360199,24.2013435 C11.4291581,24.3523002 11.5574493,24.4780535 11.7097524,24.5677187 L28.3423041,34.4902043 C28.4143663,34.5386827 28.4888926,34.5833832 28.5655685,34.6240945 C29.2077582,34.9580011 29.9706108,34.9580011 30.6128268,34.6240945 C30.6895026,34.5833832 30.7640027,34.5387091 30.8360911,34.4902043 L47.4686428,24.5677187 C47.8009049,24.3724842 48.0037485,24.012608 48,23.6249657 Z" id="Path" fill="#0A2767"></path>
                    <path d="M13.6431372,16.9998569 L24.5581084,16.9998569 L24.5581084,27.0832062 L13.6431372,27.0832062 L13.6431372,16.9998569 Z M45.7674089,6.74999019 L45.7674089,2.13748809 C45.7936228,0.984256887 44.8878779,0.0276340107 43.7436121,0 L15.4191597,0 C14.2748676,0.0276340107 13.3691227,0.984256887 13.3953366,2.13748809 L13.3953366,6.74999019 L30.1395074,11.2499748 L45.7674089,6.74999019 Z" id="Shape" fill="#0364B8"></path>
                    <polygon id="Path" fill="#0078D4" points="13.3953366 6.74999019 24.5581084 6.74999019 24.5581084 16.8749755 13.3953366 16.8749755"></polygon>
                    <polygon id="Path" fill="#28A8EA" points="35.7209064 6.74999019 24.5581084 6.74999019 24.5581084 16.8749755 35.7209064 26.9999608 45.7674089 26.9999608 45.7674089 16.8749755"></polygon>
                    <polygon id="Path" fill="#0078D4" points="24.5581084 16.8749755 35.7208802 16.8749755 35.7208802 26.9999608 24.5581084 26.9999608"></polygon>
                    <polygon id="Path" fill="#0364B8" points="24.5581084 26.9999608 35.7208802 26.9999608 35.7208802 37.1249461 24.5581084 37.1249461"></polygon>
                    <polygon id="Path" fill="#14447D" points="13.6431372 27.0832062 24.5581084 27.0832062 24.5581084 36.2496929 13.6431372 36.2496929"></polygon>
                    <polygon id="Path" fill="#0078D4" points="35.7209064 26.9999608 45.7674089 26.9999608 45.7674089 37.1249461 35.7209064 37.1249461"></polygon>
                    <path d="M47.4886965,24.505846 L47.4674894,24.5171004 L30.8349377,33.9445779 C30.7623775,33.989569 30.6887162,34.0323145 30.6116734,34.0705689 C30.3291655,34.2061499 30.0223572,34.282685 29.7097294,34.2955774 L28.8010747,33.7600693 C28.724294,33.7212338 28.6497415,33.6780391 28.5778104,33.6306967 L11.7220205,23.9354652 L11.7142088,23.9354652 L11.1627718,23.6249657 L11.1627718,42.7094467 C11.17137,43.9827247 12.2022342,45.0080364 13.4656425,44.9999997 L45.7327802,44.9999997 C45.7517591,44.9999997 45.7685099,44.9909434 45.7885898,44.9909434 C46.0554479,44.9737448 46.3185313,44.918424 46.5699757,44.8266981 C46.6786325,44.7803067 46.7835146,44.7253822 46.883652,44.6624527 C46.9584404,44.6197072 47.0868102,44.5263433 47.0868102,44.5263433 C47.6586417,44.0998919 47.9971164,43.4263987 47.9999213,42.7094732 L47.9999213,23.6249657 C47.9999213,23.9899935 47.8042078,24.3265684 47.4886965,24.505846 Z" id="Path" fill="url(#linearGradient-1)"></path>
                    <path d="M47.1069425,23.549593 L47.1069425,24.7196001 L29.7153392,36.7874465 L11.7097524,23.943338 C11.7097524,23.9371296 11.7047455,23.9320836 11.6985852,23.9320836 L11.6985852,23.9320836 L10.0465025,22.9308395 L10.0465025,22.0870775 L10.7274364,22.0758231 L12.167422,22.9083307 L12.2008973,22.9195851 L12.3236835,22.9983394 C12.3236835,22.9983394 29.24645,32.7295796 29.2911186,32.752062 L29.9385511,33.1345526 C29.9943607,33.1120439 30.0501702,33.0895615 30.1171469,33.0670527 C30.1506483,33.044544 46.9171272,23.5383122 46.9171272,23.5383122 L47.1069425,23.549593 Z" id="Path" fill="#0A2767" opacity="0.5"></path>
                    <path d="M47.4886965,24.505846 L47.4674894,24.51821 L30.8349377,33.9456875 C30.7623775,33.9906786 30.6887162,34.0334241 30.6116734,34.0716785 C29.965735,34.3897074 29.2103534,34.3897074 28.564415,34.0716785 C28.4879227,34.0335034 28.4134226,33.9914447 28.3411507,33.9456875 L11.7086514,24.51821 L11.6885715,24.505846 C11.3674504,24.3303727 11.1661272,23.9930845 11.162798,23.6249657 L11.162798,42.7094467 C11.1707933,43.9825134 12.2012905,45.0079835 13.4644629,45 C13.4644891,45 13.4645153,45 13.4645677,45 L45.698204,45 C46.9614026,45.0080628 47.991926,43.9825926 47.9999737,42.7095524 C47.9999737,42.709526 47.9999737,42.7094996 47.9999737,42.7094467 L47.9999737,23.6249657 C47.9995543,23.9899935 47.8042078,24.3265684 47.4886965,24.505846 Z" id="Path" fill="#1490DF"></path>
                    <path d="M31.077181,33.8061965 L30.8282531,33.9468235 C30.7561123,33.9931091 30.681586,34.035564 30.6049888,34.0739505 C30.3307383,34.2096108 30.0325282,34.2891576 29.7276074,34.3079413 L36.0557898,41.8499392 L47.0946744,44.5308081 C47.3971574,44.3005423 47.6377491,43.9977306 47.7945873,43.6499278 L31.077181,33.8061965 Z" id="Path" fill="#000000" opacity="0.1"></path>
                    <path d="M32.2046174,33.1672062 L30.8282531,33.9468235 C30.7561123,33.9931091 30.681586,34.035564 30.6049888,34.0739505 C30.3307383,34.2096108 30.0325282,34.2891576 29.7276074,34.3079413 L32.6924331,42.546311 L47.0980036,44.5274265 C47.6655097,44.0980162 47.9996067,43.4246287 47.9999475,42.7094203 L47.9999475,42.4630391 L32.2046174,33.1672062 Z" id="Path" fill="#000000" opacity="0.05"></path>
                    <path d="M13.4958148,44.9999559 L45.6948486,44.9999559 C46.1903188,45.002462 46.673547,44.8447421 47.0734411,44.5499353 L28.7999737,33.7623413 C28.723193,33.7235058 28.6486405,33.6803111 28.5767094,33.6329687 L11.7209195,23.9377108 L11.7131078,23.9377108 L11.1627969,23.6249657 L11.1627969,42.6441924 C11.1615397,43.9439948 12.2060614,44.9986841 13.4958148,44.9999559 C13.4957885,44.9999559 13.4957885,44.9999559 13.4958148,44.9999559 Z" id="Path" fill="#28A8EA"></path>
                    <path d="M26.7906733,11.0621111 L26.7906733,35.0583395 C26.788681,35.8996709 26.2810738,36.6559076 25.5069491,36.9708455 C25.2671438,37.0746976 25.0088838,37.1283541 24.7478713,37.1283541 L11.1627718,37.1283541 L11.1627718,10.1249853 L13.3953366,10.1249853 L13.3953366,8.99999573 L24.7478975,8.99999573 C25.8755961,9.00430198 26.7882354,9.92557657 26.7906733,11.0621111 Z" id="Path" fill="#000000" opacity="0.1"></path>
                    <path d="M25.6745024,12.1871007 L25.6745024,36.1833026 C25.6772088,36.4550723 25.6200362,36.724068 25.5069491,36.9707927 C25.1969428,37.7408727 24.4562147,38.2461049 23.631602,38.2499092 L11.1627718,38.2499092 L11.1627718,10.1248902 L23.631602,10.1248902 C23.9555018,10.1217094 24.2747092,10.2031319 24.5581084,10.3612482 C25.2423978,10.7086811 25.6741418,11.4149071 25.6745024,12.1871007 Z" id="Path" fill="#000000" opacity="0.2"></path>
                    <path d="M25.6744039,12.1871007 L25.6744039,33.9333235 C25.6689514,35.0693297 24.7588025,35.9901023 23.6316282,35.9999301 L11.1627718,35.9999301 L11.1627718,10.1248902 L23.631602,10.1248902 C23.9555018,10.1217094 24.2747092,10.2031319 24.5581084,10.3612482 C25.2423978,10.7086811 25.6741418,11.4149071 25.6744039,12.1871007 Z" id="Path" fill="#000000" opacity="0.2"></path>
                    <path d="M24.5581084,12.1871007 L24.5581084,33.9333235 C24.5569026,35.0710997 23.6442633,35.9943821 22.5153327,35.9999301 L11.1627718,35.9999301 L11.1627718,10.1249853 L22.5153065,10.1249853 C23.6441323,10.1255929 24.5587113,11.048347 24.5581084,12.1859911 C24.5581084,12.186361 24.5581084,12.1867308 24.5581084,12.1871007 Z" id="Path" fill="#000000" opacity="0.2"></path>
                    <path d="M2.04613112,10.1249853 L22.5119773,10.1249853 C23.6420352,10.1249853 24.5581084,11.0482413 24.5581084,12.1871007 L24.5581084,32.8128251 C24.5581084,33.9517109 23.6420352,34.8749405 22.5119773,34.8749405 L2.04613112,34.8749405 C0.916073256,34.8749405 0,33.9516845 0,32.8128251 L0,12.1871007 C0,11.0482413 0.91609947,10.1249853 2.04613112,10.1249853 Z" id="Path" fill="url(#linearGradient-2)"></path>
                    <path d="M6.39515915,18.7739815 C6.89946342,17.6911299 7.7134595,16.7849404 8.73265849,16.1718669 C9.86135323,15.5206183 11.1464667,15.1959583 12.4465221,15.2336051 C13.6514471,15.2072656 14.8404077,15.5150968 15.8835401,16.1234678 C16.8643094,16.7129229 17.6542148,17.5766046 18.1573919,18.6097097 C18.7053686,19.7480936 18.9784657,21.0009235 18.9544275,22.2659588 C18.9809823,23.5880323 18.6999948,24.8980059 18.1339566,26.0909445 C17.6187998,27.160983 16.8038338,28.0554426 15.7897727,28.6638135 C14.7064281,29.2908361 13.4733232,29.6067515 12.224385,29.577321 C10.9937179,29.6072535 9.77854331,29.2959349 8.71145139,28.6773135 C7.72218875,28.0870923 6.92237443,27.222433 6.4074535,26.1865539 C5.85622622,25.0646289 5.57987859,23.8259067 5.60150511,22.5741864 C5.57854168,21.2633673 5.84985622,19.9642782 6.39515915,18.7739815 Z M8.88669176,24.8827094 C9.15556841,25.567272 9.61153413,26.1609806 10.2016629,26.5949614 C10.8027492,27.0183482 11.522506,27.2367784 12.2556058,27.218206 C13.0363364,27.2493273 13.8058998,27.023447 14.4479846,26.5746982 C15.0306425,26.1420912 15.4746284,25.5467711 15.724998,24.8624463 C16.0048845,24.0982047 16.1430059,23.2886286 16.1324417,22.4740857 C16.1410923,21.6517494 16.0112545,20.8339042 15.7484333,20.0553437 C15.5163086,19.35242 15.0866355,18.7325833 14.5116059,18.2711007 C13.8856164,17.8011111 13.1181239,17.5627348 12.338206,17.5961016 C11.5892206,17.5765518 10.8533421,17.7966992 10.2362654,18.2249735 C9.63614905,18.6607772 9.17153271,19.259743 8.89673171,19.951835 C8.28712593,21.5382544 8.28395404,23.2963164 8.88779274,24.884955 L8.88669176,24.8827094 Z" id="Shape" fill="#FFFFFF"></path>
                    <polygon id="Path" fill="#50D9FF" points="35.7209064 6.74999019 45.7674089 6.74999019 45.7674089 16.8749755 35.7209064 16.8749755"></polygon>
                </g>
            </g>
        </g>
    </g>
</svg>